<svg width="24" height="25" viewBox="0 0 24 25" fill="none" xmlns="http://www.w3.org/2000/svg">
<path d="M12.001 2.5C6.476 2.5 2.001 6.975 2.001 12.5C1.99919 14.5993 2.65876 16.6458 3.88605 18.349C5.11335 20.0522 6.846 21.3254 8.838 21.988C9.338 22.075 9.526 21.775 9.526 21.512C9.526 21.275 9.513 20.488 9.513 19.65C7.001 20.113 6.351 19.038 6.151 18.475C6.038 18.187 5.551 17.3 5.126 17.062C4.776 16.875 4.276 16.412 5.113 16.4C5.901 16.387 6.463 17.125 6.651 17.425C7.551 18.937 8.988 18.512 9.563 18.25C9.651 17.6 9.913 17.163 10.201 16.913C7.976 16.663 5.651 15.8 5.651 11.975C5.651 10.887 6.038 9.988 6.676 9.288C6.576 9.038 6.226 8.013 6.776 6.638C6.776 6.638 7.613 6.375 9.526 7.662C10.3402 7.43664 11.1812 7.32327 12.026 7.325C12.876 7.325 13.726 7.437 14.526 7.662C16.439 6.362 17.276 6.638 17.276 6.638C17.826 8.013 17.476 9.038 17.376 9.288C18.013 9.988 18.401 10.875 18.401 11.975C18.401 15.813 16.064 16.663 13.839 16.913C14.201 17.225 14.514 17.825 14.514 18.763C14.514 20.1 14.501 21.175 14.501 21.513C14.501 21.775 14.689 22.087 15.189 21.987C17.1735 21.3161 18.8978 20.0401 20.1196 18.3384C21.3413 16.6367 21.9989 14.5948 22 12.5C22 6.975 17.525 2.5 12 2.5" fill="black"/>
</svg>
