<svg width="24" height="25" viewBox="0 0 24 25" fill="none" xmlns="http://www.w3.org/2000/svg">
<path fill-rule="evenodd" clip-rule="evenodd" d="M18 3.5C18.7956 3.5 19.5587 3.81607 20.1213 4.37868C20.6839 4.94129 21 5.70435 21 6.5V18.5C21 19.2956 20.6839 20.0587 20.1213 20.6213C19.5587 21.1839 18.7956 21.5 18 21.5H6C5.20435 21.5 4.44129 21.1839 3.87868 20.6213C3.31607 20.0587 3 19.2956 3 18.5V6.5C3 5.70435 3.31607 4.94129 3.87868 4.37868C4.44129 3.81607 5.20435 3.5 6 3.5H18ZM8 10.5C7.73478 10.5 7.48043 10.6054 7.29289 10.7929C7.10536 10.9804 7 11.2348 7 11.5V16.5C7 16.7652 7.10536 17.0196 7.29289 17.2071C7.48043 17.3946 7.73478 17.5 8 17.5C8.26522 17.5 8.51957 17.3946 8.70711 17.2071C8.89464 17.0196 9 16.7652 9 16.5V11.5C9 11.2348 8.89464 10.9804 8.70711 10.7929C8.51957 10.6054 8.26522 10.5 8 10.5ZM11 9.5C10.7348 9.5 10.4804 9.60536 10.2929 9.79289C10.1054 9.98043 10 10.2348 10 10.5V16.5C10 16.7652 10.1054 17.0196 10.2929 17.2071C10.4804 17.3946 10.7348 17.5 11 17.5C11.2652 17.5 11.5196 17.3946 11.7071 17.2071C11.8946 17.0196 12 16.7652 12 16.5V12.84C12.305 12.496 12.82 12.092 13.393 11.847C13.726 11.705 14.227 11.647 14.575 11.757C14.6904 11.7863 14.7933 11.8523 14.868 11.945C14.92 12.015 15 12.171 15 12.5V16.5C15 16.7652 15.1054 17.0196 15.2929 17.2071C15.4804 17.3946 15.7348 17.5 16 17.5C16.2652 17.5 16.5196 17.3946 16.7071 17.2071C16.8946 17.0196 17 16.7652 17 16.5V12.5C17 11.83 16.83 11.234 16.476 10.756C16.1503 10.3226 15.6944 10.0047 15.175 9.849C14.273 9.566 13.274 9.723 12.607 10.009C12.3935 10.1008 12.1854 10.205 11.984 10.321C11.9421 10.0906 11.8206 9.8822 11.6408 9.73216C11.461 9.58213 11.2342 9.49996 11 9.5ZM8 7.5C7.73478 7.5 7.48043 7.60536 7.29289 7.79289C7.10536 7.98043 7 8.23478 7 8.5C7 8.76522 7.10536 9.01957 7.29289 9.20711C7.48043 9.39464 7.73478 9.5 8 9.5C8.26522 9.5 8.51957 9.39464 8.70711 9.20711C8.89464 9.01957 9 8.76522 9 8.5C9 8.23478 8.89464 7.98043 8.70711 7.79289C8.51957 7.60536 8.26522 7.5 8 7.5Z" fill="black"/>
</svg>
